<svg id="Слой_1" data-name="Слой 1" xmlns="http://www.w3.org/2000/svg" viewBox="0 0 130.03 16.05"><defs><style>.cls-1{fill:#8f97a1;}</style></defs><title>logo_dark</title><g id="Canvas"><g id="Logo"><path id="path0_fill" data-name="path0 fill" class="cls-1" d="M65.39.09h.54c0,.17-.11.24-.28.22V.4a.47.47,0,0,1,.29.14c-.2,0-.3.11-.26.31H66c0,.27-.33.2-.53.24A4.77,4.77,0,0,1,65.39.09Z" transform="translate(0 0.02)"/><path id="path1_fill" data-name="path1 fill" class="cls-1" d="M64.61.34c.1-.18.35-.15.53-.16,0,.19-.19.18-.34.22.13.1.28.18.42.27s.07.41-.14.45l-.26.09-.1-.2L65.1.9a1.3,1.3,0,0,0-.4-.24C64.65.56,64.54.45,64.61.34Z" transform="translate(0 0.02)"/><path id="path2_fill" data-name="path2 fill" class="cls-1" d="M66.14,0c.17-.07.29.12.43.19V0h.26a7.93,7.93,0,0,0,0,.92h-.22a.55.55,0,0,0-.25-.5,5,5,0,0,1,.09.62c-.14,0-.28,0-.25-.22A6.43,6.43,0,0,0,66.14,0Z" transform="translate(0 0.02)"/><path id="path3_fill" data-name="path3 fill" class="cls-1" d="M63.82.45c.21,0,.54-.27.63,0h-.31V.66h.31a.29.29,0,0,1-.24.26l.07.2L64.61,1c.05.3-.31.24-.5.31A8.51,8.51,0,0,0,63.82.45Z" transform="translate(0 0.02)"/><path id="path4_fill" data-name="path4 fill" class="cls-1" d="M63.89,15h.22v.93H63.9a1.31,1.31,0,0,0-.16-.57c0,.23.08.52-.16.67A5.76,5.76,0,0,1,63.52,15a.62.62,0,0,1,.37.27Z" transform="translate(0 0.02)"/><path id="path5_fill" data-name="path5 fill" class="cls-1" d="M64.32,15a.88.88,0,0,1,.55.15.77.77,0,0,1,0,.71,1.53,1.53,0,0,1-.51.11A9.14,9.14,0,0,0,64.32,15Zm.23.19v.62a.33.33,0,0,0,0-.66Z" transform="translate(0 0.02)"/><path id="path6_fill" data-name="path6 fill" class="cls-1" d="M68.3,14.95a1.74,1.74,0,0,1,.56.11v.36c0,.12.16.34,0,.43a3.63,3.63,0,0,1-.5.09C68.32,15.61,68.32,15.28,68.3,14.95Zm.22.23q-.07.21.14.15c0-.15,0-.2-.14-.16Zm0,.35c-.1.08,0,.28.13.2s0-.29-.12-.21Z" transform="translate(0 0.02)"/><path id="path7_fill" data-name="path7 fill" class="cls-1" d="M67,.18c0-.28.5-.18.7-.06V.19l-.2.07V1h-.26V.28Z" transform="translate(0 0.02)"/><path id="path8_fill" data-name="path8 fill" class="cls-1" d="M67.88.06c.2,0,.52-.05.57.21L68,.32c.09.09.23.15.28.27-.12.06-.3.06-.3.22l.33.14c-.16.16-.39.07-.59.06A6.54,6.54,0,0,0,67.88.06Z" transform="translate(0 0.02)"/><path id="path9_fill" data-name="path9 fill" class="cls-1" d="M67.64,7.43c.14,0,.19,0,.15.14S67.6,7.57,67.64,7.43Z" transform="translate(0 0.02)"/><path id="path10_fill" data-name="path10 fill" class="cls-1" d="M66.35,14.95h.22c0,.13-.06.33.13.39,0-.18-.05-.48.25-.41v1c-.31,0-.19-.29-.23-.47-.2.07-.13.29-.15.44h-.22C66.34,15.6,66.34,15.27,66.35,14.95Z" transform="translate(0 0.02)"/><path id="path11_fill" data-name="path11 fill" class="cls-1" d="M68.48,1.13A4.85,4.85,0,0,1,68.69.2a.45.45,0,0,1,.57.44A.67.67,0,0,1,69,1.1.91.91,0,0,1,68.48,1.13Zm.41-.75a3.55,3.55,0,0,0-.1.62.4.4,0,0,0,.15-.55l0-.06Z" transform="translate(0 0.02)"/><path id="path12_fill" data-name="path12 fill" class="cls-1" d="M70.77.79,71,.88l0,.35L71.27,1l.23.13a1.64,1.64,0,0,0-.64.71h-.23A1.74,1.74,0,0,0,70.77.79Z" transform="translate(0 0.02)"/><path id="path13_fill" data-name="path13 fill" class="cls-1" d="M62.18,1.07c.22-.1.57-.28.73,0s-.06.38-.19.51l.14.2-.23.14A7.71,7.71,0,0,0,62.18,1.07Zm.38.09c0,.13,0,.19.15.15s0-.19-.15-.16Z" transform="translate(0 0.02)"/><path id="path14_fill" data-name="path14 fill" class="cls-1" d="M0,.5A.52.52,0,0,1,.6.26c.73.07,1.46.09,2.19.13C3.34.48,3.9.41,4.46.5a4.42,4.42,0,0,1,1.79.61A3.18,3.18,0,0,1,7.4,2.73a15.71,15.71,0,0,1,.18,3.53,4,4,0,0,1-.92,3.2A3.86,3.86,0,0,1,4,10.29a5.31,5.31,0,0,0-1.22,0,2.46,2.46,0,0,0-.09.9c-.08,1.16.08,2.32,0,3.48a1.1,1.1,0,0,1-.49.08H.31a.29.29,0,0,1-.3-.28H0V8.11C0,7,0,5.93,0,4.83.05,3.39,0,1.94,0,.5ZM2.72,3V7.11c0,.26-.13.66.21.78a5.63,5.63,0,0,0,1.24,0,.84.84,0,0,0,.68-.7A5.08,5.08,0,0,0,4.91,6a21.42,21.42,0,0,0-.07-2.35A1.14,1.14,0,0,0,4.45,3a3.9,3.9,0,0,0-1.51-.26C2.86,2.81,2.74,2.87,2.72,3Z" transform="translate(0 0.02)"/><path id="path15_fill" data-name="path15 fill" class="cls-1" d="M124.06.58c.9-.1,1.82-.12,2.73-.13a3,3,0,0,1,2.39,1,4,4,0,0,1,.67,2.29V6.51A3.41,3.41,0,0,1,128.77,9c-.15.18-.43.24-.53.44.32.94.66,1.88,1,2.83.31.7.47,1.46.79,2.16-.09.15-.17.35-.38.34H128c-.26,0-.64,0-.76-.23-.37-1.12-.82-2.21-1.16-3.34-.13-.47-.36-.91-.49-1.38H125V12a10.14,10.14,0,0,1,0,1.35,7.74,7.74,0,0,0,0,1.18c0,.4-.33.27-.54.28h-1.68a.55.55,0,0,1-.39-.12,1,1,0,0,1-.1-.49c0-.88-.05-1.75,0-2.62V1a.34.34,0,0,1,.29-.31A11,11,0,0,1,124.06.58Zm1.15,2.26a.37.37,0,0,0-.25.4V7.11a.78.78,0,0,0,.15.41c.6,0,1.35.09,1.78-.41a3.28,3.28,0,0,0,.28-1.86c-.06-.67.15-1.4-.21-2-.14-.27-.46-.36-.73-.46s-.68,0-1,0Z" transform="translate(0 0.02)"/><path id="path16_fill" data-name="path16 fill" class="cls-1" d="M9.57,1c.1-.28.5-.18.75-.19a28.14,28.14,0,0,1,4.78.45,2.67,2.67,0,0,1,1.76,1.67,8.34,8.34,0,0,1,.28,2.86,5.52,5.52,0,0,1-.48,2.87,2.46,2.46,0,0,1-1.13,1,9.06,9.06,0,0,0,.47,1.2c.18.54.37,1.07.56,1.61s.47,1.36.76,2l-.21.27a22.31,22.31,0,0,1-2.29,0,.37.37,0,0,1-.37-.3c-.19-.55-.39-1.09-.61-1.63-.31-1-.66-1.89-1-2.84l-.53-.07a12.61,12.61,0,0,0,0,1.58c-.1.69.05,1.37,0,2.06a5.44,5.44,0,0,1,0,1c-.08.2-.35.2-.54.21H10a.36.36,0,0,1-.36-.21,8.62,8.62,0,0,1,0-1.26v-2C9.56,7.85,9.57,4.42,9.57,1Zm2.81,2.22a.5.5,0,0,0-.14.29V7.38a.39.39,0,0,0,.39.39h.05A2.41,2.41,0,0,0,14,7.57a1.14,1.14,0,0,0,.46-.9c.05-.64,0-1.28,0-1.92a1.52,1.52,0,0,0-.51-1.37,2.84,2.84,0,0,0-1.57-.19Z" transform="translate(0 0.02)"/><path id="path17_fill" data-name="path17 fill" class="cls-1" d="M117.85.87a12.6,12.6,0,0,0,1.84-.09.54.54,0,0,1,.55.26,17.13,17.13,0,0,0-.05,2,1.17,1.17,0,0,1-.68.18c-.64,0-1.29.06-1.93.08-.19,0-.51,0-.53.25V5a15.5,15.5,0,0,0,.06,1.71c.8.13,1.63-.09,2.43,0a.65.65,0,0,1,.13.43,10.72,10.72,0,0,0,0,1.6.57.57,0,0,1-.5.29h-1.85c-.21,0-.28.19-.28.35v1.85a2.61,2.61,0,0,0,.14,1.23h2.89c.07.09.2.17.18.3V14.5a.26.26,0,0,1-.21.27,11.64,11.64,0,0,1-1.31,0h-3.15a7.91,7.91,0,0,1-1,0c-.11-.1-.28-.2-.24-.37a9.59,9.59,0,0,0,0-1.35c.07-2.18,0-4.36,0-6.55V1.22A2.25,2.25,0,0,1,114.6,1C115.69.92,116.78.95,117.85.87Z" transform="translate(0 0.02)"/><path id="path18_fill" data-name="path18 fill" class="cls-1" d="M20.46,1.61a4.66,4.66,0,0,1,2.75-.43,3.6,3.6,0,0,1,2.67,1.35,3.6,3.6,0,0,1,.66,1.89,22.83,22.83,0,0,1,0,2.34V10a10.6,10.6,0,0,1-.11,2.5,3,3,0,0,1-1.53,2.06,4.3,4.3,0,0,1-1.68.41,4.89,4.89,0,0,1-2.35-.31,3.07,3.07,0,0,1-1.68-1.92A7.25,7.25,0,0,1,19,10.54v-5a5.91,5.91,0,0,1,.32-2.62A3,3,0,0,1,20.46,1.61Zm1.82,1.85c-.3.1-.42.41-.52.67a9.55,9.55,0,0,0-.07,1.72v5.52a1.91,1.91,0,0,0,.24,1,1.16,1.16,0,0,0,1.64.1h0a3.33,3.33,0,0,0,.29-1.9V4.94a2.39,2.39,0,0,0-.38-1.3,1.34,1.34,0,0,0-1.22-.19Z" transform="translate(0 0.02)"/><path id="path19_fill" data-name="path19 fill" class="cls-1" d="M105.8,1.35a29,29,0,0,1,4.45,0A2.6,2.6,0,0,1,112,2.64a4.25,4.25,0,0,1,.41,2.11V7.19A4.5,4.5,0,0,1,112,9a2.94,2.94,0,0,1-2.28,1.44,14.31,14.31,0,0,1-1.86.11c-.14,0-.32.06-.31.22-.09,1.26,0,2.52-.05,3.77,0,.26-.39.2-.58.21h-1.76a.27.27,0,0,1-.31-.29V11.52c.05-1.17,0-2.35,0-3.52V1.54C105.07,1.28,105.49,1.37,105.8,1.35Zm2,2.16a.23.23,0,0,0-.22.17c-.08,1.48,0,3-.07,4.44.1.1.2.22.37.19A2.18,2.18,0,0,0,109.39,8c.47-.54.34-1.31.36-2a14.61,14.61,0,0,0-.05-1.76,1,1,0,0,0-.43-.72,2.84,2.84,0,0,0-1.5,0Z" transform="translate(0 0.02)"/><path id="path20_fill" data-name="path20 fill" class="cls-1" d="M30.2,1.79a5.18,5.18,0,0,1,2.37-.35A4.06,4.06,0,0,1,35,2.37a3.47,3.47,0,0,1,1,2.46.68.68,0,0,1-.19.7c-.71.1-1.37.41-2.08.5a.34.34,0,0,1-.41-.37A2.67,2.67,0,0,0,33,3.82a1.41,1.41,0,0,0-1.32-.09c-.38.19-.44.64-.49,1v6c0,.6-.09,1.31.4,1.76.14.19.4.19.61.21A1,1,0,0,0,33.33,12a16.14,16.14,0,0,0,.09-2.39c-.16-.39-.7-.18-1-.2-.12-.11-.32-.19-.27-.39V7.5c0-.17.21-.24.37-.22h2.81A3.34,3.34,0,0,1,36,7.4a1.73,1.73,0,0,1,.14,1v3.69a7.54,7.54,0,0,1,0,1.18v1.34c0,.13,0,.3-.18.36a1.39,1.39,0,0,1-.45,0,9.26,9.26,0,0,0-1-.65c-.26,0-.46.25-.71.32a4.31,4.31,0,0,1-2.93.13A3.37,3.37,0,0,1,29,13.46a4.42,4.42,0,0,1-.5-2.17V5.92a6.31,6.31,0,0,1,.36-2.79A3,3,0,0,1,30.2,1.79Z" transform="translate(0 0.02)"/><path id="path21_fill" data-name="path21 fill" class="cls-1" d="M98.93,1.58a6.35,6.35,0,0,1,1.67.1,2.62,2.62,0,0,1,2,1.62,6.27,6.27,0,0,1,.22,2.29,11.71,11.71,0,0,1-.16,2.94A2.52,2.52,0,0,1,101,10.32a8.79,8.79,0,0,1-3,.36,1.56,1.56,0,0,0-.11.77v3c0,.28-.31.33-.53.3a19.05,19.05,0,0,0-2,0,.33.33,0,0,1-.19-.36V1.91c.06-.27.41-.25.64-.27C96.94,1.64,97.93,1.58,98.93,1.58ZM98,4V8.11a.31.31,0,0,0,.23.37h.1a2.55,2.55,0,0,0,1.52-.27,1.8,1.8,0,0,0,.37-1.28V4.71a1,1,0,0,0-.52-.87,3.53,3.53,0,0,0-1.39-.06C98.1,3.77,98,3.9,98,4Z" transform="translate(0 0.02)"/><path id="path22_fill" data-name="path22 fill" class="cls-1" d="M88.36,1.71a6,6,0,0,1,2,0,3.14,3.14,0,0,1,2,.94,3.47,3.47,0,0,1,.82,2v6.81a3.7,3.7,0,0,1-1,2.57,4.23,4.23,0,0,1-3.25.9,4,4,0,0,1-1.79-.46,2.91,2.91,0,0,1-1.44-1.9,9.13,9.13,0,0,1-.11-2.12v-5A3.82,3.82,0,0,1,86,3.23,3.17,3.17,0,0,1,88.36,1.71ZM88.65,4a1.66,1.66,0,0,0-.41,1.19V7.62c0,.57.05,1.14,0,1.71v.87a8.61,8.61,0,0,0,0,1.74,1,1,0,0,0,.68.83,1.23,1.23,0,0,0,1.17-.26,2.08,2.08,0,0,0,.33-1.29V6.6a8.46,8.46,0,0,0-.12-2.2,1.65,1.65,0,0,0-.3-.46A1.44,1.44,0,0,0,88.65,4Z" transform="translate(0 0.02)"/><path id="path23_fill" data-name="path23 fill" class="cls-1" d="M38.35,2.06a.3.3,0,0,1,.28-.32h3.08a6.54,6.54,0,0,1,2.83.52,2.69,2.69,0,0,1,1.35,2.21A13.5,13.5,0,0,1,46,6.07a6,6,0,0,1-.37,2.69,2.77,2.77,0,0,1-1.23,1.17V10c.58,1.49,1.14,3,1.74,4.47a2.92,2.92,0,0,1-.15.26,11.91,11.91,0,0,1-2.13,0,.83.83,0,0,1-.45-.08,1.93,1.93,0,0,1-.24-.53c-.53-1.28-1-2.58-1.48-3.86H41.1v2.29a15.69,15.69,0,0,1,0,1.68c0,.15.06.36-.11.45a.76.76,0,0,1-.5.11H38.7c-.28,0-.32-.34-.32-.55Q38.35,8.15,38.35,2.06ZM41,4.24v3.1a1.21,1.21,0,0,0,.13.82,4.91,4.91,0,0,0,1.32,0,.94.94,0,0,0,.69-.72,11.91,11.91,0,0,0,.06-1.83,1.71,1.71,0,0,0-.36-1.38c-.41-.37-1-.26-1.53-.28a.28.28,0,0,0-.31.29Z" transform="translate(0 0.02)"/><path id="path24_fill" data-name="path24 fill" class="cls-1" d="M48,2.13c.17-.36.6-.23.93-.23h1.59a.43.43,0,0,1,.34.33c.52,1.4,1.08,2.78,1.59,4.19h.17c.09-.28.2-.55.3-.83a2.25,2.25,0,0,0,.2-.59c.23-.69.53-1.36.79-2a5,5,0,0,1,.4-1,1.8,1.8,0,0,1,1,0l.16-.07.17.07A2.17,2.17,0,0,1,57,2.06v12.6c-.34.24-.77.09-1.16.12s-.65-.06-1,0-.42-.09-.42-.28V7.72c-.21.06-.24.27-.3.43-.45.89-.82,1.8-1.28,2.68a.34.34,0,0,1-.59,0c-.31-.59-.59-1.19-.85-1.8a12.36,12.36,0,0,1-.57-1.22c0-.08-.12-.13-.18-.18-.06,1,0,2,0,2.94v3.77c0,.14,0,.34-.2.39H49.32a4.81,4.81,0,0,1-1.09,0c-.24-.15-.13-.46-.16-.69V6.75C48,5.23,48,3.67,48,2.13Z" transform="translate(0 0.02)"/><path id="path25_fill" data-name="path25 fill" class="cls-1" d="M75.73,2.23A.28.28,0,0,1,76,1.91h2a.44.44,0,0,1,.45.24c0,.61-.06,1.23,0,1.84a3.23,3.23,0,0,1,0,.58V6.33c.06.29-.11.62.07.88.64.05,1.29,0,1.93,0a.25.25,0,0,0,.24-.31V2A.7.7,0,0,1,81,1.88h1.84a.4.4,0,0,1,.47.46V14.51c0,.43-.6.3-.89.27s-.89,0-1.33,0c-.2,0-.5-.06-.46-.31V9.53l-.21-.13H78.73c-.17,0-.36.09-.36.27v4.45a1.16,1.16,0,0,1-.08.53c-.08.15-.3.11-.45.13H76.17c-.25,0-.56-.13-.49-.41Q75.73,8.31,75.73,2.23Z" transform="translate(0 0.02)"/><path id="path26_fill" data-name="path26 fill" class="cls-1" d="M67.64,6.48c.12,0,.16,0,.12.12S67.6,6.59,67.64,6.48Z" transform="translate(0 0.02)"/><path id="path27_fill" data-name="path27 fill" class="cls-1" d="M63,.72c.23-.07.51-.22.7,0a1,1,0,0,0,.26.71h-.23l-.25-.27.14.34-.25.09A7.38,7.38,0,0,0,63,.72Zm.36.11c0,.14,0,.19.15.15s0-.19-.17-.15Z" transform="translate(0 0.02)"/><path id="path28_fill" data-name="path28 fill" class="cls-1" d="M70.08.5c.17.07.39.1.49.26s0,.19-.05.28-.07.35-.21.47-.35,0-.52,0A5.64,5.64,0,0,1,70.08.5Zm.13.31q-.07.21.14.14c0-.13,0-.18-.14-.13Zm-.12.35c-.05.14,0,.19.13.15S70.23,1.12,70.09,1.16Z" transform="translate(0 0.02)"/><path id="path29_fill" data-name="path29 fill" class="cls-1" d="M68.94,3.07a.43.43,0,0,1,0-.56,1.8,1.8,0,0,1,1,.86,2.59,2.59,0,0,1,.51,1.37,2.8,2.8,0,0,1,1.25.38,1.3,1.3,0,0,0,.52.57c-.09,0-.18.15-.28.06a1.06,1.06,0,0,0-.58-.34,1.61,1.61,0,0,0,.52.37l-.27.12V6l-.28-.1.25-.11-.35-.21c.12.24-.2.22-.08.06l.13-.15L71,5.36h.34A2.35,2.35,0,0,0,70.86,5c-.25-.08-.52-.06-.78-.13.11.09.22.18.32.28h-.2a1.16,1.16,0,0,1-.78-.47l.12-.29.15.17c-.08-.13-.17-.25-.26-.37l-.11.12a2.65,2.65,0,0,0-.38-.4,1.86,1.86,0,0,1,.16.51,8.36,8.36,0,0,0,.61.77,8,8,0,0,1-1.11-.47,6.28,6.28,0,0,1-.89-1.25l.09-.25-.2.14a2.16,2.16,0,0,0,1,1.47A4.62,4.62,0,0,0,70,5.4a.9.9,0,0,1-.64.08l.62.29-.08.13.4.1V5.85l.12-.2.19-.14h.18l-.12-.22-.4.08.22-.3h0c.14.15.31,0,.46,0,0,.21-.27.56.05.65l-.24.07.09.17a.88.88,0,0,1,.5.17l.6-.13-.13-.13H72a1.1,1.1,0,0,0,0,.47l-.15.1.09.14c-.15.11-.42.07-.5.25L71.7,7l-.17.12c.21,0,.28.16.18.34,0,.54.29,1.06-.09,1.54a.29.29,0,0,1,.06.25c-.35-.12-.52.19-.75.36h0a.41.41,0,0,0,.3-.15.7.7,0,0,1,.52-.21c-.15.27-.47.4-.62.66.38.43.71.91,1.12,1.32.16.16.44.21.55.39h-.11a1.9,1.9,0,0,1-.58-.38c-.42-.44-.8-.9-1.18-1.36a.29.29,0,0,0,.2.36h0l.15.26.45.41-.17.11-.3-.14v-.25l-.07.27c-.31-.17-.59-.37-.9-.54.31.39.84.53,1.17.9a2.17,2.17,0,0,0,1.26.86,4.67,4.67,0,0,0-.76-.51c-.17-.07-.19-.27-.26-.41l.12-.18.16.34v.09a1.18,1.18,0,0,1,.66.42l.65.13.06-.13-.47-.11.08-.12h0c.2.22.53,0,.75.21s.36.2.52.33.07.28-.07.3a8.08,8.08,0,0,1-1,.08c-.18-.24-.5-.24-.77-.31a3.63,3.63,0,0,1-.87-.66c-.34-.48-.94-.67-1.37-1.06A4,4,0,0,0,71,11.62a5.69,5.69,0,0,0,.8.82h-.19a4,4,0,0,1-.74-.62,7,7,0,0,1-1.06-1.28l-.26-.1c0-.35-.47-.42-.6-.71a1.46,1.46,0,0,0,.93.34v.3l.11-.05A.45.45,0,0,0,70,10a1.09,1.09,0,0,1-.51-.24l.41.12.06-.07c.16,0,.23.06.23.22l.11-.07.53.05-.1-.33V10l-.29-.14-.24.13V9.7h.38l-.38-.15a2.94,2.94,0,0,1-.39-.23,11.56,11.56,0,0,0,1.13.3l-.35-.17.18-.11h.34A2.32,2.32,0,0,1,70.43,9l.36-.17-.06-.23a1.48,1.48,0,0,0,.9.31,2,2,0,0,1-.78-.34l.39-.1c-.14-.18-.35,0-.53,0a.82.82,0,0,1-1-.76c.08.11.14.22.21.33L70,8.2l.38.19a4.58,4.58,0,0,0,.63-.1L71.12,8l.34.13-.32-.21a1.36,1.36,0,0,1-1,0L70,8c-.15-.17-.32-.37-.21-.61l.12.18.23.25.11-.13.29.17a.37.37,0,0,1,.32,0l.4-.24a1.2,1.2,0,0,0-.39-.17V7.21L71.12,7H70.9a6.51,6.51,0,0,0,.7-.66,3.68,3.68,0,0,0-.64.4h-.13V6.47a.54.54,0,0,0,.46-.38,4.12,4.12,0,0,1-.67.05l.08-.29c-.29,0-.37.22-.46.43l.25-.15.23.3a4.69,4.69,0,0,1-.61-.16l-.28-.1L70,6l-.24.06V5.81l-.36.27L69.77,6l-.13.34.29.07-.28.13c.32,0,.58.28.9.3h.38l-.21.24a4.52,4.52,0,0,1-1.05-.17L69.51,7a1.81,1.81,0,0,1,0-.28h-.36v.15L69,6.77l.16-.16.21-.13c-.21-.07-.42-.24-.65-.18a2.29,2.29,0,0,1-1,0A5.35,5.35,0,0,0,68.84,6,15.6,15.6,0,0,0,67,6.15l.43.17a2.11,2.11,0,0,1-.91.28l.08.24h-.4c-.4-.13-.7.23-1,.37a.45.45,0,0,1-.39-.12l-.24.25a.82.82,0,0,1,0,.32c-.17,0-.28-.2-.42-.29h-.27l.26.13L64,7.71a.72.72,0,0,1,.4,0v.17c.09-.06.16-.16.28-.16a2.2,2.2,0,0,1,.08.6h.13a1.89,1.89,0,0,0,.11.47l.34.07v.33L65,9.32l.26.21V9.3l.22.28h.17l.22.46h.46l.06.28a1.32,1.32,0,0,0,.53-.16,2.8,2.8,0,0,0,.15-.3h.53l-.06.23.26-.2L68,10l.15-.42-.29.16.1-.26-.15-.26a5.25,5.25,0,0,0-.85.22L67.31,9v.21A1.39,1.39,0,0,1,68,8.78a.74.74,0,0,0-.35-.13V8.29l.21.29v-.2l.31.19,0,.43.05.23.15-.47.2.31V8.73h.12v.4h.18v.29h-.08l-.11-.31-.34.4a1.83,1.83,0,0,1,.08.55l.33.11V9.7l.09.1a2,2,0,0,1,.12.59l.3.25v-.29a7.69,7.69,0,0,0,.55.8,4.43,4.43,0,0,0-.26-.46l.2-.21a1.49,1.49,0,0,0,.44.82l-.13.14a3.71,3.71,0,0,0,.66.61h-.18c-.25-.2-.46-.45-.72-.64A1.32,1.32,0,0,1,69.5,11c-.19-.2-.5-.22-.71-.4s-.29-.18-.41-.3h-.33c-.33-.3-.82,0-1.16.12v-.21c-.33,0-.53.46-.89.29a3.34,3.34,0,0,0-1.26.43l.07.14c.4.08.88-.1,1.2.2.14.1.27.29.09.41v.12h-.3a1.11,1.11,0,0,1-.47.08c-.28,0-.5-.24-.77-.3a14.07,14.07,0,0,0-1.42-.06,4.81,4.81,0,0,0-.87-.11,4.34,4.34,0,0,0,1.15.5,3.15,3.15,0,0,1,1.16.4v.18l-.39.23c.12-.26-.13-.35-.32-.43a3.16,3.16,0,0,0,.3.33L64,13c-.43-.15-.89-.19-1.33-.34A4.38,4.38,0,0,1,62,12.1c-.25-.26-.64-.31-.91-.55a3.16,3.16,0,0,1-.65-.78c0-.11.26-.25.3-.11-.24.18.15.41.2.6l.16-.22a6.85,6.85,0,0,0,1.58.43,3.06,3.06,0,0,0,1.33.07,5.9,5.9,0,0,1,.52-.42l-.31-.28.17-.16a.46.46,0,0,0,.15.3c.27-.16.69-.29.59-.68l-.18.08a.49.49,0,0,1-.37.44.63.63,0,0,1,.05-.3l-.24-.13c-.21-.18-.43-.35-.63-.54a3.85,3.85,0,0,0-.08-.47c.1.14.18.31.36.36.36.11.54.46.8.7v-.21a1.84,1.84,0,0,1-.42-.64,1,1,0,0,1,.54.75l.1-.18a4.09,4.09,0,0,0-.24-.5c-.17-.19-.42-.34-.45-.6l-.1.08-.25-.24a.63.63,0,0,1,0-.27l.11-.11H64a2.35,2.35,0,0,1-.15.24,1.14,1.14,0,0,1-.13-.52l-.12.19a2.25,2.25,0,0,0-.3-.43c0-.26,0-.59-.37-.64v.1l-.14-.12-.12.13h.23a1.27,1.27,0,0,1-.37.24l0,.29c-.15-.07-.36-.11-.38-.29h-.3c.08.35.45.56.49.92-.29-.11-.44-.38-.67-.56a3.65,3.65,0,0,0,.15.45.77.77,0,0,1-.15.36h-.23a.8.8,0,0,1,.34.09l.1-.19a.36.36,0,0,1,0,.45l-.15-.15V9.3a1.52,1.52,0,0,1-.29-.22L61.16,9v.27L61.25,9c.14,0,.28.05.3.21a.34.34,0,0,1,.16.27.82.82,0,0,1,.6.37h-.6l.19.22h-.42l-.19-.36c.15-.11,0-.27,0-.41l.27.17a.5.5,0,0,0-.31-.3c-.16.07,0,.23,0,.34H61a2.49,2.49,0,0,0,.61.85l0-.19c.25.28.65.31,1,.48a2.53,2.53,0,0,1-.88,0,1.66,1.66,0,0,1-.27-.22v.28a2.28,2.28,0,0,0,1.41.07l-.2-.05v-.1l.23.06c.16,0,.4-.11.5.07-.12.2-.39.19-.6.24a3.37,3.37,0,0,1-2-.42,2.93,2.93,0,0,1-1.06-.34,1.74,1.74,0,0,1-.37-.57l.16-.12H59.4c.21-.75.07-1.64.65-2.26l.33-.16h.27a1.43,1.43,0,0,1,.29.52,1.94,1.94,0,0,1-.07.33,1.54,1.54,0,0,1,.19.23c.16-.09,0-.24,0-.35a6.16,6.16,0,0,1,.65-.68l.11.12L62,7.16l-.12-.09a2.9,2.9,0,0,1,1.61-.69l-.06.18a2.49,2.49,0,0,0,.71-.14,2.41,2.41,0,0,1-.59,0c0-.14.26-.09.37-.14a3.11,3.11,0,0,1,1.64-.15,3,3,0,0,0,1,0C67,6,67.52,6.13,68,6a6.91,6.91,0,0,1,1.3-.09h0a.22.22,0,0,0,.2-.11l-.17-.07c-.15-.06.06-.24.07-.35a3.07,3.07,0,0,1-1.79-1.53c-.11-.25-.32-.66.06-.79a4.27,4.27,0,0,1,1,.49c.22.18.41.38.64.55A7.27,7.27,0,0,1,68.94,3.07Zm-.44.85c0,.11,0,.16.14.13s-.06-.15-.19-.13Zm1.23,0c-.12.08,0,.26.14.18s-.08-.24-.19-.16Zm-5,2.28v.17a.12.12,0,0,0,.17,0l0,0C65,6.22,64.86,6.1,64.78,6.2Zm1.73,0c0,.1.1.12.22.05s-.11-.14-.22-.07Zm-.68,0,.13.25.29-.17Zm5.87,0C72,6.06,71.7,6.48,71.7,6.2Zm-5,.09c0,.13,0,.18.14.14s0-.12-.14-.07Zm-1.23.25c0,.14,0,.18.15.14s0-.12-.14-.07Zm-2.9.09c0,.12,0,.16.12.11s0-.09-.1,0Zm1.07.24C63.89,6.75,63.62,7.15,63.62,6.87Zm.07.22c-.06.1.12.21.19.12s-.1-.14-.17-.06Zm-3.54.61H60l.1.31-.22-.16a1,1,0,0,0,.07.5h-.14a2.43,2.43,0,0,1,.06.55l-.15-.29V9l.21-.14.06.29-.22-.05c.06.24.11.48.17.72l-.18-.06.19.21h-.13l.31.21.25-.09A.82.82,0,0,1,60,9.31a.77.77,0,0,0,.13-.38,5.32,5.32,0,0,0,.28-.46,1.28,1.28,0,0,1,.34.08V8.33c-.13-.11-.31-.22-.32-.41s.1-.19.16-.28l-.15-.29v.27l-.18-.23a.65.65,0,0,0,0,.37Zm3.39-.08a1.27,1.27,0,0,0,.12.36c.18-.06,0-.19-.11-.3Zm.31.51c0,.12,0,.16.13.11s0-.1-.11-.05Zm7.47.09C71.58,8.09,71.32,8.5,71.32,8.22Zm-10,.24.08.28.15-.1.14.18.1-.41-.22.14-.13-.24Zm10-.08C71.58,8.25,71.32,8.66,71.32,8.38Zm-6.76.28C64.85,8.66,64.41,8.91,64.56,8.66Zm6.37,0a.77.77,0,0,0,.46.23l.11-.21Zm-3.1.21c0,.11,0,.15.15.12s0-.13-.12-.1Zm-7,.05c0,.12,0,.16.12.12s.05-.14,0-.1ZM59.59,9C59.88,9,59.45,9.25,59.59,9Zm11.14.07c0,.12,0,.17.12.15s0-.13-.12-.11Zm.26,0c0,.13,0,.18.15.13s0-.12-.14-.07ZM61,9.2C61.29,9.2,60.85,9.45,61,9.2Zm-.52.37a4.17,4.17,0,0,0,.34.78l.13-.2h-.16a.91.91,0,0,1,0-.65Zm1.12.12q-.07.2.15.15Q61.81,9.63,61.6,9.69Zm-.41.51c0,.12,0,.16.14.12s0-.16-.15-.12Zm4.64.08C66.09,10.15,65.83,10.56,65.83,10.28Zm-4.66.19c-.18.1.1.26.22.21s-.12-.24-.23-.21Zm-.08.91a5.47,5.47,0,0,0,.63.37c.39.2.63.59,1,.8a11.28,11.28,0,0,0,1.3.32,1.12,1.12,0,0,0-.41-.43h.28a4.84,4.84,0,0,1-.8-.32,7.5,7.5,0,0,1-1.84-.88Zm3.82,0v.18l-.27-.08-.09.09a8.37,8.37,0,0,1,.85.35h.14c0-.18-.25-.14-.39-.2A1.86,1.86,0,0,1,64.91,11.38Zm.77.07.2.11-.34.11.29.16a1.12,1.12,0,0,1,.15-.31Zm-1.44.08C64.5,11.4,64.24,11.81,64.24,11.53Zm8.81.7c0,.14.27.31.35.16a.31.31,0,0,0-.35-.15Zm.71.06c0,.13.23.13.33.06s-.3-.22-.33,0Z" transform="translate(0 0.02)"/><path id="path30_fill" data-name="path30 fill" class="cls-1" d="M72.16,5.79h.42l-.2.17h.16l-.15.16a.72.72,0,0,1-.28.51V6.5a1.09,1.09,0,0,0,0-.26V6.19c-.1-.11.1-.15.16-.2Z" transform="translate(0 0.02)"/><path id="path31_fill" data-name="path31 fill" class="cls-1" d="M69.07,6.94c.34-.08,0,.39-.1.11Z" transform="translate(0 0.02)"/><path id="path32_fill" data-name="path32 fill" class="cls-1" d="M70.43,7.31l.36-.06.06.27-.27-.11-.15.14Z" transform="translate(0 0.02)"/><path id="path33_fill" data-name="path33 fill" class="cls-1" d="M63.8,8.81c.11.27.43.42.44.73h-.13a1.8,1.8,0,0,0-.34-.45Z" transform="translate(0 0.02)"/><path id="path34_fill" data-name="path34 fill" class="cls-1" d="M65.51,8.89l.16.1a1.24,1.24,0,0,1,.57.06,2.3,2.3,0,0,1,.34-.13.65.65,0,0,1-.68.3A1.17,1.17,0,0,1,65.51,8.89Z" transform="translate(0 0.02)"/><path id="path35_fill" data-name="path35 fill" class="cls-1" d="M66.75,9.13C66.68,9,67,8.8,66.94,9Z" transform="translate(0 0.02)"/><path id="path36_fill" data-name="path36 fill" class="cls-1" d="M69.85,9.22c-.2-.06-.1-.38.08-.22S70,9.28,69.85,9.22Z" transform="translate(0 0.02)"/><path id="path37_fill" data-name="path37 fill" class="cls-1" d="M62,9.31c.12-.07.23.13.15.22S61.88,9.39,62,9.31Z" transform="translate(0 0.02)"/><path id="path38_fill" data-name="path38 fill" class="cls-1" d="M69.36,9.48c-.08-.09-.07-.17,0-.23a.17.17,0,0,1,.15.25Z" transform="translate(0 0.02)"/><path id="path39_fill" data-name="path39 fill" class="cls-1" d="M62.1,10c.25.05.5.13.76.16v.21a.82.82,0,0,0-.61-.09A1.17,1.17,0,0,1,62.1,10Z" transform="translate(0 0.02)"/><path id="path40_fill" data-name="path40 fill" class="cls-1" d="M69.5,3.84" transform="translate(0 0.02)"/><path id="path41_fill" data-name="path41 fill" class="cls-1" d="M65.83,6.23l.42.08L66,6.48Z" transform="translate(0 0.02)"/><path id="path42_fill" data-name="path42 fill" class="cls-1" d="M63.68,8c.16-.12-.06-.25-.12-.36A1.07,1.07,0,0,0,63.68,8Z" transform="translate(0 0.02)"/><path id="path43_fill" data-name="path43 fill" class="cls-1" d="M64,8.3c0-.12,0-.16-.13-.11S63.87,8.35,64,8.3Z" transform="translate(0 0.02)"/><path id="path44_fill" data-name="path44 fill" class="cls-1" d="M70.09,9.62l.38.15h-.38v.29l.24-.13.29.14V9.76l.1.33L70.24,10l-.11.07c0-.16-.08-.23-.23-.22Z" transform="translate(0 0.02)"/><path id="path45_fill" data-name="path45 fill" class="cls-1" d="M69.86,4.84" transform="translate(0 0.02)"/><path id="path46_fill" data-name="path46 fill" class="cls-1" d="M68,9c0-.11,0-.15-.15-.12S67.88,9,68,9Z" transform="translate(0 0.02)"/><path id="path47_fill" data-name="path47 fill" class="cls-1" d="M70.85,9.26c0-.12,0-.17-.12-.15S70.74,9.28,70.85,9.26Z" transform="translate(0 0.02)"/><path id="path48_fill" data-name="path48 fill" class="cls-1" d="M66.73,6.24c0-.1-.1-.12-.22-.05S66.61,6.3,66.73,6.24Z" transform="translate(0 0.02)"/><path id="path49_fill" data-name="path49 fill" class="cls-1" d="M71.7,6.27C72,6.13,71.7,6.55,71.7,6.27Z" transform="translate(0 0.02)"/><path id="path50_fill" data-name="path50 fill" class="cls-1" d="M64.34,6.36" transform="translate(0 0.02)"/><path id="path51_fill" data-name="path51 fill" class="cls-1" d="M66.82,6.5q.07-.2-.14-.14C66.63,6.49,66.68,6.54,66.82,6.5Z" transform="translate(0 0.02)"/><path id="path52_fill" data-name="path52 fill" class="cls-1" d="M70.28,6.46q.18,0,.13.13T70.28,6.46Z" transform="translate(0 0.02)"/><path id="path53_fill" data-name="path53 fill" class="cls-1" d="M71.7,6.45" transform="translate(0 0.02)"/><path id="path54_fill" data-name="path54 fill" class="cls-1" d="M65.61,6.75c0-.14,0-.18-.15-.14S65.47,6.79,65.61,6.75Z" transform="translate(0 0.02)"/><path id="path55_fill" data-name="path55 fill" class="cls-1" d="M62.68,6.81c0-.12,0-.16-.12-.11S62.56,6.86,62.68,6.81Z" transform="translate(0 0.02)"/><path id="path56_fill" data-name="path56 fill" class="cls-1" d="M64.86,6.69" transform="translate(0 0.02)"/><path id="path57_fill" data-name="path57 fill" class="cls-1" d="M70.57,6.8Z" transform="translate(0 0.02)"/><path id="path58_fill" data-name="path58 fill" class="cls-1" d="M71,6.79Z" transform="translate(0 0.02)"/><path id="path59_fill" data-name="path59 fill" class="cls-1" d="M63.64,6.93C63.91,6.81,63.64,7.21,63.64,6.93Z" transform="translate(0 0.02)"/><path id="path60_fill" data-name="path60 fill" class="cls-1" d="M67.85,7a.22.22,0,0,1,.29.09C68.13,7.29,67.78,7.18,67.85,7Z" transform="translate(0 0.02)"/><path id="path61_fill" data-name="path61 fill" class="cls-1" d="M67.66,7.21c.09-.08.29,0,.23.15S67.6,7.32,67.66,7.21Z" transform="translate(0 0.02)"/><path id="path62_fill" data-name="path62 fill" class="cls-1" d="M64.94,7.8c.32-.14.07.45-.06.15Z" transform="translate(0 0.02)"/><path id="path63_fill" data-name="path63 fill" class="cls-1" d="M68.8,8.12a1.53,1.53,0,0,1,.08-.37,1.23,1.23,0,0,1,.31.69A.36.36,0,0,1,69,8.07a.33.33,0,0,1-.32.08l.05.16a.43.43,0,0,0-.26.23l-.1-.14c-.21,0-.33-.15-.49-.25V8H68l.25.23h.29c0-.08-.12-.27,0-.29Z" transform="translate(0 0.02)"/><path id="path64_fill" data-name="path64 fill" class="cls-1" d="M69.19,8.12l.18.18a1.32,1.32,0,0,1,.42.31.44.44,0,0,1,.22.24l-.39-.2-.18.08v.18a.22.22,0,0,1-.05-.38C69.25,8.45,69.23,8.26,69.19,8.12Z" transform="translate(0 0.02)"/><path id="path65_fill" data-name="path65 fill" class="cls-1" d="M70.48,12.17h.18a2.74,2.74,0,0,1,.94.56l.07.21a3,3,0,0,0,.67.33l-.18-.37.6.32a1.08,1.08,0,0,0-.29-.48,3.17,3.17,0,0,1-.81-.25h.19a3.85,3.85,0,0,1,1.15.34,1.45,1.45,0,0,1,.17.42l-.19.12a7.76,7.76,0,0,0-.78,0,3.62,3.62,0,0,1-.6-.32c-.2-.17-.32-.42-.54-.57A4.8,4.8,0,0,0,70.48,12.17Z" transform="translate(0 0.02)"/><path id="path66_fill" data-name="path66 fill" class="cls-1" d="M63.9,7.27c.06-.1-.12-.19-.19-.12S63.83,7.36,63.9,7.27Z" transform="translate(0 0.02)"/><path id="path67_fill" data-name="path67 fill" class="cls-1" d="M69.94,7.2" transform="translate(0 0.02)"/><path id="path68_fill" data-name="path68 fill" class="cls-1" d="M64.77,7.58c-.09-.14.23-.25.25-.09a.18.18,0,0,1-.24.1Z" transform="translate(0 0.02)"/><path id="path69_fill" data-name="path69 fill" class="cls-1" d="M67.66,7.71q.21-.06.14.14T67.66,7.71Z" transform="translate(0 0.02)"/><path id="path70_fill" data-name="path70 fill" class="cls-1" d="M62.4,8.22" transform="translate(0 0.02)"/><path id="path71_fill" data-name="path71 fill" class="cls-1" d="M65.47,8.2c.11.06.1.12,0,.17S65.35,8.25,65.47,8.2Z" transform="translate(0 0.02)"/><path id="path72_fill" data-name="path72 fill" class="cls-1" d="M71.34,8.29C71.6,8.16,71.34,8.57,71.34,8.29Z" transform="translate(0 0.02)"/><path id="path73_fill" data-name="path73 fill" class="cls-1" d="M71.35,8.44C71.61,8.31,71.35,8.72,71.35,8.44Z" transform="translate(0 0.02)"/><path id="path74_fill" data-name="path74 fill" class="cls-1" d="M62.93,8.54c.14,0,.19,0,.14.14S62.87,8.67,62.93,8.54Z" transform="translate(0 0.02)"/><path id="path75_fill" data-name="path75 fill" class="cls-1" d="M64.77,8.64" transform="translate(0 0.02)"/><path id="path76_fill" data-name="path76 fill" class="cls-1" d="M65.37,8.64C65.23,8.89,65.66,8.64,65.37,8.64Z" transform="translate(0 0.02)"/><path id="path77_fill" data-name="path77 fill" class="cls-1" d="M64.59,8.71C64.88,8.71,64.44,9,64.59,8.71Z" transform="translate(0 0.02)"/><path id="path78_fill" data-name="path78 fill" class="cls-1" d="M70.28,8.79c.14,0,.19,0,.15.14S70.23,8.92,70.28,8.79Z" transform="translate(0 0.02)"/><path id="path79_fill" data-name="path79 fill" class="cls-1" d="M66.94,9h.18c0,.09-.09.24-.2.21Z" transform="translate(0 0.02)"/><path id="path80_fill" data-name="path80 fill" class="cls-1" d="M59.59,9C59.88,9,59.45,9.25,59.59,9Z" transform="translate(0 0.02)"/><path id="path81_fill" data-name="path81 fill" class="cls-1" d="M66.5,9.2c0-.13,0-.18.15-.17S66.61,9.21,66.5,9.2Z" transform="translate(0 0.02)"/><path id="path82_fill" data-name="path82 fill" class="cls-1" d="M71.14,9.25c0-.14,0-.18-.15-.13S71,9.3,71.14,9.25Z" transform="translate(0 0.02)"/><path id="path83_fill" data-name="path83 fill" class="cls-1" d="M66.69,9.19" transform="translate(0 0.02)"/><path id="path84_fill" data-name="path84 fill" class="cls-1" d="M70.33,9.37c.14-.16.16.23,0,.08Z" transform="translate(0 0.02)"/><path id="path85_fill" data-name="path85 fill" class="cls-1" d="M66.61,9.9a.25.25,0,0,1,.28,0C66.9,10.16,66.44,10.11,66.61,9.9Z" transform="translate(0 0.02)"/><path id="path86_fill" data-name="path86 fill" class="cls-1" d="M70.72,10.22" transform="translate(0 0.02)"/><path id="path87_fill" data-name="path87 fill" class="cls-1" d="M65.82,10.3C66.08,10.17,65.82,10.58,65.82,10.3Z" transform="translate(0 0.02)"/><path id="path88_fill" data-name="path88 fill" class="cls-1" d="M61,10.4" transform="translate(0 0.02)"/><path id="path89_fill" data-name="path89 fill" class="cls-1" d="M63.8,10.49q.21-.07.15.13C63.81,10.67,63.76,10.62,63.8,10.49Z" transform="translate(0 0.02)"/><path id="path90_fill" data-name="path90 fill" class="cls-1" d="M69.19,14.95h.3c.09.32.11.66.22,1a.35.35,0,0,1-.33-.24c-.1.12-.2.25-.38.24C69.06,15.62,69.14,15.29,69.19,14.95Zm.12.42c-.08.1-.06.16.06.17S69.43,15.38,69.31,15.37Z" transform="translate(0 0.02)"/><path id="path91_fill" data-name="path91 fill" class="cls-1" d="M71.08,10.64" transform="translate(0 0.02)"/><path id="path92_fill" data-name="path92 fill" class="cls-1" d="M64.24,11.54C64.5,11.41,64.24,11.82,64.24,11.54Z" transform="translate(0 0.02)"/><path id="path93_fill" data-name="path93 fill" class="cls-1" d="M64.39,12.54" transform="translate(0 0.02)"/><path id="path94_fill" data-name="path94 fill" class="cls-1" d="M64.39,12.54" transform="translate(0 0.02)"/><path id="path95_fill" data-name="path95 fill" class="cls-1" d="M60.51,15a.93.93,0,0,1,.5.09c.14.09,0,.25,0,.37a.4.4,0,0,1,0,.45,2.72,2.72,0,0,1-.5,0C60.52,15.58,60.52,15.27,60.51,15Zm.23.23c0,.14,0,.19.14.14s0-.24-.15-.19Zm0,.39c0,.14,0,.19.14.15s0-.24-.14-.2Z" transform="translate(0 0.02)"/><path id="path96_fill" data-name="path96 fill" class="cls-1" d="M61.29,15c.2,0,.54-.08.52.22l-.23-.09-.1.19.27.13c-.09.12-.29.12-.28.3h.3c.1.27-.33.15-.48.18C61.3,15.61,61.3,15.28,61.29,15Z" transform="translate(0 0.02)"/><path id="path97_fill" data-name="path97 fill" class="cls-1" d="M61.9,14.95a.27.27,0,0,1,.33.19v0a.38.38,0,0,1,.38-.23,3.39,3.39,0,0,0-.29.94l-.14.09A2.75,2.75,0,0,0,61.9,14.95Z" transform="translate(0 0.02)"/><path id="path98_fill" data-name="path98 fill" class="cls-1" d="M62.77,15.85c-.09-.28-.2-.71.13-.88s.49.35.43.61A.43.43,0,0,1,63,16Zm.3-.11a.84.84,0,0,0,0-.68c-.18.17-.29.62,0,.67Z" transform="translate(0 0.02)"/><path id="path99_fill" data-name="path99 fill" class="cls-1" d="M69.85,15a.76.76,0,0,1,.55.15c0,.27-.11.54,0,.8h-.25l-.06-.3-.06.09V16h-.22A4.38,4.38,0,0,0,69.85,15Zm.26.23q-.12.15.06.18c.12,0,.05-.21-.07-.22Z" transform="translate(0 0.02)"/><path id="path100_fill" data-name="path100 fill" class="cls-1" d="M70.6,15c.19,0,.48,0,.57.2l-.05.26c0,.11.13.24,0,.35a1.12,1.12,0,0,1-.56.17A5.68,5.68,0,0,0,70.6,15Zm.21.22q-.07.21.14.14t-.14-.19Zm0,.34c-.13.08,0,.31.12.2s.07-.36-.1-.25Z" transform="translate(0 0.02)"/><path id="path101_fill" data-name="path101 fill" class="cls-1" d="M65.51,15.13c.1-.25.41-.17.63-.16q.09.2-.16.22v.71h-.22v-.76Z" transform="translate(0 0.02)"/><path id="path102_fill" data-name="path102 fill" class="cls-1" d="M67.16,15c.2,0,.54-.07.53.23l-.3-.09v.2c.18,0,.37.18.11.23a.19.19,0,0,0-.13.21h.33c0,.3-.32.17-.52.2C67.17,15.6,67.17,15.28,67.16,15Z" transform="translate(0 0.02)"/><path id="path103_fill" data-name="path103 fill" class="cls-1" d="M71.34,15h.52v.22l-.23-.09v.19l.26.09-.23.19v.15H72c0,.28-.35.16-.54.2A4.15,4.15,0,0,0,71.34,15Z" transform="translate(0 0.02)"/><path id="path104_fill" data-name="path104 fill" class="cls-1" d="M72.09,15h.2v.77q.29,0,.21.21h-.43A8,8,0,0,1,72.09,15Z" transform="translate(0 0.02)"/><path id="path105_fill" data-name="path105 fill" class="cls-1" d="M72.68,15h.26v.76h.27a.35.35,0,0,1-.47.16h0A5.74,5.74,0,0,1,72.68,15Z" transform="translate(0 0.02)"/></g></g></svg>